PathFileType	4	(X/Y/Z)	E-squat_0-154.trc
DataRate	CameraRate	NumFrames	NumMarkers	Units	OrigDataRate	OrigDataStartFrame	OrigNumFrames
30	30	9	22	m	30	19	154
Frame#	Time	Hip			RHip			RKnee			RAnkle			RBigToe			RSmallToe			RHeel			LHip			LKnee			LAnkle			LBigToe			LSmallToe			LHeel			Neck			Head			Nose			RShoulder			RElbow			RWrist			LShoulder			LElbow			LWrist			
		X1	Y1	Z1	X2	Y2	Z2	X3	Y3	Z3	X4	Y4	Z4	X5	Y5	Z5	X6	Y6	Z6	X7	Y7	Z7	X8	Y8	Z8	X9	Y9	Z9	X10	Y10	Z10	X11	Y11	Z11	X12	Y12	Z12	X13	Y13	Z13	X14	Y14	Z14	X15	Y15	Z15	X16	Y16	Z16	X17	Y17	Z17	X18	Y18	Z18	X19	Y19	Z19	X20	Y20	Z20	X21	Y21	Z21	X22	Y22	Z22	
19	0.6333333333333333	0.5659052656743506	0.34955800895744377	-0.08903284732035814	0.48002409414342995	0.29101234479677784	-0.09592952386436195	0.6922676535196913	0.015516136194771516	-0.2673768463459252	0.5832515585784049	0.14795306704470879	-0.6253805126918338	0.704395432837927	0.03979576769440658	-0.6981377412238574	0.6360566866421673	0.02163815886868014	-0.7002289120774994	0.5616090989091121	0.19946673696199066	-0.6838056906878638	0.6813458258483053	0.3848180087067659	-0.09020987633412507	0.8919396014644362	0.1497375544736673	-0.2711787201904861	0.7934331440820191	0.3181273455362187	-0.6085009259312435	0.8975665524365826	0.19562725828631447	-0.6899715397522538	0.927960167315366	0.2484771229246523	-0.6786763793424362	0.7352612388846804	0.36744075522140623	-0.6707904354876192	0.8516791531489315	-0.019364251410962187	0.22969441603987095	0.9273044900121905	-0.11582008622094693	0.43616160122436914	0.9507212396525522	-0.14269747295545485	0.3147992289363473	0.6977942741489725	-0.07457598281074078	0.16720056398586836	0.559286903201206	-0.0386718356240014	-0.08322112681552585	0.5294481653211466	-0.06857389307688798	-0.32915620714299926	0.9434375226394542	0.11417957844083605	0.18833221545190137	0.9259784913908402	0.270045969975889	-0.07992762166281858	0.9662409638120218	0.300404302933689	-0.32277118442636393
20	0.6666666666666666	0.5687973818342971	0.349171887264226	-0.0948297388172295	0.479531942337502	0.29152570501463576	-0.10132552556593706	0.6890783191816325	0.015067631395354268	-0.2739429195980287	0.5821766116403567	0.14915246040650768	-0.6300549549220678	0.7008834572697196	0.03889149990030444	-0.6990100631799325	0.6388099593763273	0.020858059163972112	-0.7042294171565624	0.5626934834294276	0.19660562556549802	-0.6856146945538938	0.6821627832328959	0.38397574786299704	-0.09433576422926068	0.89266539735134	0.153875109141305	-0.27384391498851757	0.7936862372168534	0.31646798066861237	-0.6072298085925655	0.8979271430783385	0.19904397182437375	-0.6876058104617229	0.9254592542319767	0.2489521026343222	-0.6756830773855539	0.7320540706540664	0.37021611922380454	-0.665644269733353	0.8541541892677802	-0.0194425302790044	0.22602144462128002	0.9300355830454982	-0.1206014235577124	0.43156752921012603	0.9558181488425804	-0.14077281600587102	0.3111702919813637	0.7026606052071915	-0.08250139375075444	0.16141030495966596	0.5624307007118478	-0.038528735046319644	-0.08696967238229726	0.5340021604980351	-0.06767056939649431	-0.33541487576199397	0.9473575116958854	0.11337631702810494	0.1815911422290894	0.9292407443039364	0.27359959395248085	-0.08316986845131989	0.9665887148488934	0.3012527361923784	-0.32798223577986513
21	0.7	0.5706894533620743	0.3499841957819012	-0.09801816019631193	0.47944187722900206	0.2953536883098916	-0.10428538725507433	0.6939353493508964	0.009637375642251516	-0.27033796694068096	0.5819396546753858	0.148085782425939	-0.6256852060786723	0.701822525567716	0.040277472349704656	-0.6979293910603935	0.6358398367021014	0.022533169883527313	-0.7018094901407669	0.5622035049539551	0.20043686468275576	-0.6833805372296703	0.680856836541692	0.3872313044959159	-0.09551197138459204	0.8934138955370856	0.15458765198539806	-0.27229186813183665	0.7945174324060883	0.3169566091566628	-0.6042413851575199	0.8966781271001844	0.19751481932079126	-0.6864236674799443	0.9265770597664891	0.24948724679773515	-0.6782907572592275	0.7336306114811921	0.3708085061603223	-0.6643484764261305	0.8479697440516875	-0.015140632588048186	0.22551495512309863	0.9378497017233421	-0.1266919589431989	0.42853247878888345	0.9547653358864817	-0.13685767729068438	0.3071683948292102	0.6994481748560816	-0.08057898346154109	0.16103622928650851	0.5624153021881096	-0.03887130647455781	-0.08853822528142379	0.5341648060261084	-0.06786626667163619	-0.33243711310522867	0.9432599604693519	0.11960293664315642	0.1811718043516518	0.9299770412276396	0.27377337675852076	-0.08525928201461362	0.9676670186422661	0.30609456769589255	-0.3295433208220212
22	0.7333333333333333	0.5714598600868589	0.35133473541801097	-0.09329211583112583	0.48284526760136964	0.2941910123534089	-0.09982053401623597	0.6936570478440903	0.012154686399978933	-0.2708698118819082	0.5821167394969197	0.15006149936375937	-0.6248586877372408	0.6991279271702221	0.040485086248233305	-0.7003809273518428	0.6372768639665124	0.022571435483732118	-0.7017214521626068	0.5632230204284755	0.202329702825899	-0.684475985119059	0.6839812797360826	0.38576169628374757	-0.09297440200683466	0.8987180685594044	0.1564979249117006	-0.27822624700266596	0.7994002671458453	0.31316012554623285	-0.6042189260738772	0.8995688922741194	0.19927752900554938	-0.6882776814288752	0.9275725454523636	0.2489816861589075	-0.6779836975168694	0.7363623047854988	0.3641321201164099	-0.6642003617744021	0.8494449402672247	-0.014997300153898349	0.23362663674211157	0.9364758018367582	-0.12786456241929223	0.43727869857862156	0.9528794546193055	-0.13797186570039033	0.31640214819045903	0.6990442972864992	-0.07796678480649051	0.17114241075604325	0.5647781156624061	-0.034245064432225976	-0.07519241508980379	0.5349547726068695	-0.0609033257313121	-0.3229761943356742	0.9392366828218583	0.12005925667581874	0.195319097741841	0.9278281808823721	0.2707782045876687	-0.06658152075016546	0.9661278369330315	0.30798741963337584	-0.3105530773173989
23	0.7666666666666667	0.5702615316845848	0.34700563594406564	-0.08963722612505429	0.4835328416238893	0.29229881734600427	-0.0961384542984702	0.6937396793736725	0.008235700155760296	-0.2745292705549954	0.5875428051385728	0.1495654153461979	-0.6245644332624735	0.6994706251984363	0.03867598346000845	-0.6969580240960298	0.6356456300464702	0.023149662560579782	-0.7009713277948894	0.5669889704189499	0.20207241224135902	-0.6806986930072745	0.678825203246197	0.38732827206894865	-0.08942480060763479	0.8970763848260338	0.1609050289635404	-0.2795562786132785	0.7981216841018729	0.31111189381363813	-0.6074659314428752	0.9020156233084728	0.1982435021711538	-0.6870467243851627	0.927708767172529	0.2459988918263683	-0.6768774301419017	0.735780479188715	0.3651474224826027	-0.6632173982842406	0.8488814912266152	-0.010598723650642758	0.24809112054799876	0.9394437620666072	-0.12727651239030807	0.4495812289977873	0.9537661200334905	-0.13501477198984055	0.3291933104192552	0.6975174881329012	-0.07399783176009071	0.18310587238078044	0.5643868631298739	-0.0319399689833863	-0.0636329030327892	0.5349947491687841	-0.058845373852767315	-0.3059156243827741	0.9417369984501447	0.1231183727299601	0.20264018241876905	0.9251343457311655	0.2762425593978324	-0.05862106175933152	0.9628386163332789	0.30876156086704526	-0.29896108892447976
24	0.8	0.5758656207539099	0.3457504662031592	-0.07032381911453964	0.48529041068911	0.2930387127026424	-0.07481238864636676	0.6927749139803484	0.01627819516507285	-0.271789671728261	0.5845576044903014	0.14913702176744864	-0.6273126293553999	0.7011136067055436	0.04006443043720801	-0.7010487775732769	0.6380668716297582	0.021730202807439265	-0.7025016952036323	0.5656612596477321	0.20241851026912194	-0.6824201759236506	0.6900701331734145	0.38058889069028673	-0.06882297663347	0.8933090028068188	0.1573870174994348	-0.2737956380609236	0.8060447077535481	0.3041013287814543	-0.604550587534054	0.8974954209817602	0.20267391199918502	-0.6856767636469695	0.9257209152951255	0.2479162813203296	-0.6756366292814878	0.7513312386230927	0.3499356069996248	-0.6589421776019749	0.843198823309345	-0.0069748371950836005	0.29009806286631656	0.9327380444013198	-0.12200935910961827	0.48923581675907285	0.9466442862336304	-0.12556032078987017	0.3725700040493686	0.6975955138425255	-0.07424693347106914	0.21911895980315085	0.5635436034586331	-0.022825326954391857	-0.02938586543699063	0.5315896742578804	-0.047960772302061035	-0.2721423278558098	0.9394332545766332	0.1259519711663654	0.2380048437946144	0.9124669085015773	0.28213080844547606	-0.014885568349038992	0.9533362370369071	0.3116779317886483	-0.25272891836836153
25	0.8333333333333334	0.5763271267845482	0.3426175592436589	-0.054601035295711906	0.4848692324178761	0.29059699186124477	-0.05897833365760005	0.6876980469473811	0.024393092521194773	-0.2615423146215828	0.5836628620475985	0.1522315420239854	-0.6285070156711416	0.7006216463898688	0.041633085042026	-0.7017000275519538	0.6351382667629949	0.022427224029455496	-0.7029937815879059	0.5606221718868105	0.1995422627817122	-0.6817694237896617	0.689465779250478	0.37352072181553897	-0.05293176491314995	0.8931024703737888	0.1573524326615597	-0.271022108820331	0.8021433902632774	0.30350759961503354	-0.6040848707760255	0.9004925411096614	0.19798556158294583	-0.6838027275310464	0.9281160141413421	0.24783767059703377	-0.6723750475506676	0.7468636277276728	0.3532715150356183	-0.6560823651516134	0.8430148765645679	-0.006153757728546165	0.31527551564552214	0.9201129840919402	-0.10958927655006433	0.5235728631775876	0.9444433085708724	-0.12380560546171474	0.40395671038735687	0.6927688159873389	-0.06706537315416965	0.2419015188232988	0.5658794724888446	-0.021379526057699123	-0.007961521544332452	0.5273516510075064	-0.04310898770005877	-0.24638653027046448	0.9352040200833494	0.125693008928986	0.26159686435421925	0.9142614042999381	0.27829318651793195	0.008308784004761182	0.9435407217299611	0.31388035630479605	-0.23127595414920543
26	0.8666666666666667	0.5865838144906441	0.32818488527383477	-0.028311088039852987	0.4904622795495146	0.28460569481637105	-0.028976943238453092	0.6778629114085967	0.03898680177843977	-0.27227399963622756	0.5805340183886067	0.1526763533344705	-0.6315379263139346	0.7030712749427362	0.04350761055237124	-0.702047396894924	0.6367085871135383	0.0242231492411331	-0.7057726699053068	0.5594104025822183	0.1985516157882506	-0.6848128880900778	0.6972433121244787	0.3588501882638135	-0.027300088496361653	0.8894621706162711	0.16256020672147836	-0.26889191301325893	0.7943553602128566	0.3138716007506745	-0.6079339002883528	0.8961358287401358	0.19907082719537839	-0.6870443004849026	0.9213841286952035	0.25344172484611455	-0.6780482732999036	0.7454922508242283	0.3560210284652315	-0.6564413557641815	0.8320248211670337	0.003861835672823176	0.3599666575193645	0.911381455284492	-0.10307577026977109	0.565659831960018	0.9330168334516701	-0.107841770133246	0.44375602480053683	0.6809702570852001	-0.061183780025145386	0.2828665193986306	0.5652611772463175	-0.015997498597061392	0.02979013680462141	0.5224881791381801	-0.03330441393275268	-0.2125760406192297	0.9290296121079208	0.13189710783607989	0.29857940278538914	0.912729542303612	0.2773965999310241	0.04556214799066177	0.9507382587531638	0.29878505290716456	-0.19856764900496543
27	0.9	0.5961380722026455	0.31578006016878907	-0.003465147583828943	0.4964060655058596	0.2717201945848052	-0.004651154817688558	0.6760444338942263	0.038813294819116495	-0.2562886683790125	0.5787487119116557	0.149360397784675	-0.6281142317404047	0.7051528538363089	0.03849943507540313	-0.7016331232422828	0.6396536976820985	0.026736676087889884	-0.707185168448278	0.5612603403145958	0.19677684127497633	-0.6854556860601785	0.7015006922409802	0.3553534132234477	0.0006659854543196669	0.8894252270771753	0.17153799952262808	-0.2619006395648522	0.793904553102915	0.31187298211706665	-0.6081758728023159	0.9006459177339556	0.19769619563239726	-0.6869261727904608	0.9239344409822657	0.2515760014124509	-0.6812145797460019	0.7444135611771856	0.35573986162055676	-0.6580019060832448	0.8333607474275094	0.006607264240813416	0.4131942709814068	0.8958782249868855	-0.08743095958431603	0.622397275593485	0.9368965982075879	-0.10256400154119048	0.4995349385961205	0.6745885265001021	-0.0522856218801293	0.33406462852920854	0.5660289168157174	-0.012619943968576212	0.08051335723917148	0.5251161599331061	-0.025015107255766996	-0.16430613043715472	0.9331854915665863	0.13032327500334304	0.3542607384980358	0.9100751678833945	0.2735313785189142	0.10064650633418215	0.9297412559612268	0.31289360269831096	-0.14838285656781602
